# xmcd
#
# Track frame offsets:
#	150
#	10747
#	25502
#	43073
#	56704
#	72190
#	88411
#	107640
#	121610
#	143428
#	156985
#
# Disc length: 2357 seconds
# Revision: 2
# Processed by: cddbd v1.5.2PL0 Copyright (c) Steve Scherf et al.
# Submitted via: dBpowerAMP V12.0
#
DISCID=8709330b
DTITLE=Garth Brooks - The Anthology Part 1, The First Five Years 1991
DYEAR=1991
DGENRE=Country
TTITLE0=Against The Grain (Master)
TTITLE1=Miss Rodeo (Joanne Stephen Demo)
TTITLE2=Rodeo (Master)
TTITLE3=What She's Doing Now (Day-Write)
TTITLE4=What She's Doing Now (Master)
TTITLE5=Burning Bridges (Master)
TTITLE6=Shameless (Master)
TTITLE7=We Bury The Hatchet (Master)
TTITLE8=In Lonesome Dove (Master)
TTITLE9=The River (Demo)
TTITLE10=The River (Master)
EXTD=
EXTT0=
EXTT1=
EXTT2=
EXTT3=
EXTT4=
EXTT5=
EXTT6=
EXTT7=
EXTT8=
EXTT9=
EXTT10=
PLAYORDER=
